<?xml version="1.0" standalone="no"?>
<!DOCTYPE svg PUBLIC "-//W3C//DTD SVG 20010904//EN"
 "http://www.w3.org/TR/2001/REC-SVG-20010904/DTD/svg10.dtd">
<svg version="1.0" xmlns="http://www.w3.org/2000/svg"
 width="2024.000000pt" height="2024.000000pt" viewBox="0 0 2024.000000 2024.000000"
 preserveAspectRatio="xMidYMid meet">
<metadata>
Created by potrace 1.14, written by Peter Selinger 2001-2017
</metadata>
<g transform="translate(0.000000,2024.000000) scale(0.100000,-0.100000)"
fill="#000000" stroke="none">
<path d="M122 17246 l3 -2921 323 -1 c177 -1 323 1 323 5 1 3 2 1165 4 2581 1
1416 3 2578 4 2581 2 11 18681 6 18682 -5 1 -6 2 -1170 3 -2586 l1 -2575 325
0 325 0 3 2921 2 2920 -10000 0 -10000 0 2 -2920z"/>
<path d="M7370 10850 l0 -2980 -62 0 c-35 0 -597 -1 -1250 -1 l-1188 0 -1 -92
c0 -124 0 -1203 0 -1294 l1 -73 1335 0 1336 0 372 224 c205 124 532 320 727
438 l355 213 0 3270 0 3270 -812 3 -813 2 0 -2980z"/>
<path d="M12610 13777 c-47 -27 -109 -64 -137 -81 -91 -53 -542 -320 -571
-337 -15 -9 -115 -68 -222 -131 -107 -63 -260 -154 -340 -201 l-145 -85 0
-2828 0 -2828 220 -129 c121 -71 243 -141 270 -157 45 -25 188 -108 225 -130
84 -51 220 -130 223 -130 3 0 47 -25 98 -56 92 -55 119 -72 197 -115 20 -12
90 -52 154 -90 l117 -69 1310 0 1311 0 0 755 0 755 -1142 0 c-629 0 -1180 0
-1225 0 l-83 0 0 2225 0 2225 1250 0 c1184 0 1250 1 1251 18 0 22 0 1401 0
1425 -1 16 -71 17 -1338 16 l-1338 -1 -85 -51z"/>
<path d="M15954 13100 l0 -729 1110 0 c611 0 1174 -1 1252 -1 l141 0 -1 -450
-1 -450 833 0 832 0 -2 741 -3 740 -355 210 c-195 115 -362 213 -370 218 -14
10 -88 53 -155 91 -16 10 -160 95 -319 189 l-289 171 -1336 0 -1337 0 0 -730z"/>
<path d="M18459 8808 c0 -2 -1 -202 -1 -445 l-1 -443 -261 0 c-144 0 -695 -1
-1226 -3 l-965 -2 0 -752 0 -753 1310 0 1311 0 234 136 c129 76 291 169 360
209 69 40 175 101 236 137 61 36 117 68 125 71 8 4 131 76 274 160 l260 152 3
768 2 767 -830 0 c-456 0 -830 -1 -831 -2z"/>
<path d="M122 8017 l3 -741 115 -68 c63 -38 122 -71 130 -75 13 -6 152 -86
355 -206 39 -23 79 -47 90 -53 11 -6 94 -54 185 -106 91 -53 266 -155 390
-227 l225 -131 1310 0 1310 0 0 728 0 727 -1215 2 c-668 1 -1220 3 -1226 3 -8
0 -11 120 -12 413 0 226 -1 426 -1 444 l-1 32 -830 0 -830 -1 2 -741z"/>
<path d="M120 2995 l0 -2921 10000 0 10000 0 -2 2920 -3 2921 -325 0 -325 0 0
-2585 0 -2585 -9345 0 -9345 0 -1 2580 c-1 1419 -2 2583 -3 2587 0 3 -147 6
-326 6 l-325 -1 0 -2922z"/>
</g>
</svg>
